<svg width="1534" height="307" viewBox="0 0 1534 307" fill="none" xmlns="http://www.w3.org/2000/svg">
<g clip-path="url(#clip0_35_17)">
<rect x="1479.48" y="119.977" width="35.2062" height="17.2285" fill="#213544"/>
<rect x="1452.51" y="51.0623" width="41.1987" height="18.7267" fill="#213544"/>
<rect x="1423.3" y="162.673" width="59.9254" height="17.2285" fill="#213544"/>
<rect x="1401.58" y="234.584" width="59.9254" height="20.2248" fill="#FE483E"/>
<rect x="1433.04" y="87.7666" width="41.1987" height="18.7267" fill="#FE483E"/>
<rect x="1388.1" y="30.0884" width="41.1987" height="18.7267" fill="#FE483E"/>
<rect x="1432.29" y="195.632" width="59.9254" height="20.2248" fill="#FE483E"/>
<path d="M1319.18 4.62012C1355.12 4.62012 1388.1 20.2972 1412.54 45.8188H1422.93V74.2834H1433.85C1445.63 94.6982 1453.03 118.452 1454.49 143.947H1430.04V162.673H1454.5C1453.44 181.575 1449.2 199.52 1442.36 215.857H1422.55V234.584H1432.97C1409.04 275.178 1367.68 302 1320.68 302H1262.25V299.758C1282.61 290.073 1300.37 274.961 1314.06 256.06L1320.68 255.932C1368.67 255.932 1406.07 210.4 1406.07 153.31C1406.07 148.608 1405.82 143.983 1405.33 139.452H1430.42V120.726H1401.81C1390.71 79.7175 1359.09 50.3132 1320.68 50.3132H1313.52C1300.2 30.7519 1282.62 14.9557 1262.31 4.62012H1319.18Z" fill="#FE483E"/>
<path fill-rule="evenodd" clip-rule="evenodd" d="M1192.59 4.62012C1266.64 4.62012 1326.67 71.1908 1326.67 153.31C1326.67 235.429 1266.64 302 1192.59 302H1063V4.62012H1192.59ZM1107.94 257.056H1192.59C1240.58 257.056 1279.48 210.775 1279.48 153.685C1279.48 96.5941 1240.58 50.3132 1192.59 50.3132H1107.94V257.056Z" fill="#213544"/>
<path d="M1190.72 102.748C1218.64 102.748 1241.28 125.386 1241.28 153.311C1241.28 181.235 1218.64 203.872 1190.72 203.872C1162.79 203.872 1140.15 181.235 1140.15 153.311C1140.15 125.386 1162.79 102.748 1190.72 102.748ZM1190.72 128.966C1177.27 128.966 1166.37 139.865 1166.37 153.311C1166.37 166.756 1177.27 177.655 1190.72 177.655C1204.16 177.655 1215.06 166.755 1215.06 153.311C1215.06 139.865 1204.16 128.966 1190.72 128.966Z" fill="#213544"/>
<path d="M5.6 152V9.99999H58.6C74.2 9.99999 87.2 13.2 97.6 19.6C108.133 25.8667 116.067 34.4 121.4 45.2C126.733 55.8667 129.4 67.7333 129.4 80.8C129.4 95.2 126.467 107.733 120.6 118.4C114.733 129.067 106.467 137.333 95.8 143.2C85.2667 149.067 72.8667 152 58.6 152H5.6ZM96 80.8C96 72.5333 94.5333 65.2667 91.6 59C88.6667 52.6 84.4 47.6667 78.8 44.2C73.2 40.6 66.4667 38.8 58.6 38.8H38.4V123.2H58.6C66.6 123.2 73.3333 121.4 78.8 117.8C84.4 114.067 88.6667 109 91.6 102.6C94.5333 96.0667 96 88.8 96 80.8ZM240.564 123.2V152H140.764V9.99999H238.764V38.8H173.564V66.4H229.564V93H173.564V123.2H240.564ZM241.947 79.8C241.947 71.1333 243.547 62.6667 246.747 54.4C249.947 46 254.614 38.4 260.747 31.6C266.88 24.8 274.347 19.4 283.147 15.4C291.947 11.2667 301.947 9.19999 313.147 9.19999C326.48 9.19999 338.014 12.0667 347.747 17.8C357.614 23.5333 364.947 31 369.747 40.2L344.547 57.8C342.414 52.7333 339.547 48.8 335.947 46C332.48 43.2 328.614 41.2667 324.347 40.2C320.214 39 316.214 38.4 312.347 38.4C306.08 38.4 300.614 39.6667 295.947 42.2C291.28 44.6 287.414 47.8667 284.347 52C281.28 56.1333 279.014 60.7333 277.547 65.8C276.08 70.8667 275.347 75.9333 275.347 81C275.347 86.6 276.214 92 277.947 97.2C279.68 102.4 282.147 107 285.347 111C288.68 115 292.68 118.2 297.347 120.6C302.014 122.867 307.147 124 312.747 124C316.747 124 320.814 123.333 324.947 122C329.08 120.667 332.88 118.6 336.347 115.8C339.947 112.867 342.68 109.067 344.547 104.4L371.347 120.2C368.547 127.133 363.947 133.067 357.547 138C351.147 142.933 343.88 146.733 335.747 149.4C327.747 151.933 319.814 153.2 311.947 153.2C301.68 153.2 292.214 151.133 283.547 147C275.014 142.733 267.614 137.133 261.347 130.2C255.214 123.133 250.414 115.267 246.947 106.6C243.614 97.8 241.947 88.8667 241.947 79.8ZM479.642 123.2V152H379.842V9.99999H477.842V38.8H412.642V66.4H468.642V93H412.642V123.2H479.642ZM491.569 152V9.99999H552.169C558.969 9.99999 565.169 11.4 570.769 14.2C576.502 16.8667 581.435 20.5333 585.569 25.2C589.702 29.7333 592.902 34.8667 595.169 40.6C597.435 46.3333 598.569 52.2 598.569 58.2C598.569 66.3333 596.635 74.0667 592.769 81.4C589.035 88.7333 583.769 94.7333 576.969 99.4C570.302 103.933 562.369 106.2 553.169 106.2H524.369V152H491.569ZM524.369 77.6H551.169C553.702 77.6 556.035 76.8667 558.169 75.4C560.302 73.9333 562.035 71.7333 563.369 68.8C564.702 65.8667 565.369 62.2667 565.369 58C565.369 53.6 564.569 50 562.969 47.2C561.502 44.2667 559.569 42.1333 557.169 40.8C554.902 39.4667 552.502 38.8 549.969 38.8H524.369V77.6ZM716.378 38.8H673.178V152H640.378V38.8H596.978V9.99999H716.378V38.8ZM724.397 152V9.99999H757.197V152H724.397ZM838.558 153.2C827.891 153.2 818.224 151.2 809.558 147.2C801.024 143.067 793.624 137.6 787.358 130.8C781.224 123.867 776.491 116.133 773.158 107.6C769.824 98.9333 768.158 90 768.158 80.8C768.158 71.3333 769.891 62.3333 773.358 53.8C776.958 45.2667 781.891 37.6667 788.158 31C794.558 24.2 802.091 18.8667 810.758 15C819.424 11.1333 828.891 9.19999 839.158 9.19999C849.691 9.19999 859.224 11.2667 867.758 15.4C876.424 19.4 883.824 24.8667 889.958 31.8C896.224 38.7333 901.024 46.5333 904.358 55.2C907.691 63.7333 909.358 72.4667 909.358 81.4C909.358 90.8667 907.624 99.8667 904.158 108.4C900.691 116.933 895.758 124.6 889.358 131.4C882.958 138.067 875.424 143.4 866.758 147.4C858.224 151.267 848.824 153.2 838.558 153.2ZM801.558 81.2C801.558 86.6667 802.358 92 803.958 97.2C805.558 102.267 807.891 106.8 810.958 110.8C814.158 114.8 818.091 118 822.758 120.4C827.424 122.8 832.758 124 838.758 124C845.024 124 850.491 122.8 855.158 120.4C859.824 117.867 863.691 114.533 866.758 110.4C869.824 106.267 872.091 101.667 873.558 96.6C875.158 91.4 875.958 86.1333 875.958 80.8C875.958 75.3333 875.158 70.0667 873.558 65C871.958 59.9333 869.558 55.4 866.358 51.4C863.158 47.2667 859.224 44.0667 854.558 41.8C849.891 39.5333 844.624 38.4 838.758 38.4C832.491 38.4 827.024 39.6 822.358 42C817.824 44.4 813.958 47.6667 810.758 51.8C807.691 55.8 805.358 60.4 803.758 65.6C802.291 70.6667 801.558 75.8667 801.558 81.2ZM953.111 70.8V152H920.311V9.99999H946.311L1012.11 93.6V9.99999H1044.91V152H1018.11L953.111 70.8Z" fill="#FE483E"/>
<path d="M5.6 302V160H58.6C74.2 160 87.2 163.2 97.6 169.6C108.133 175.867 116.067 184.4 121.4 195.2C126.733 205.867 129.4 217.733 129.4 230.8C129.4 245.2 126.467 257.733 120.6 268.4C114.733 279.067 106.467 287.333 95.8 293.2C85.2667 299.067 72.8667 302 58.6 302H5.6ZM96 230.8C96 222.533 94.5333 215.267 91.6 209C88.6667 202.6 84.4 197.667 78.8 194.2C73.2 190.6 66.4667 188.8 58.6 188.8H38.4V273.2H58.6C66.6 273.2 73.3333 271.4 78.8 267.8C84.4 264.067 88.6667 259 91.6 252.6C94.5333 246.067 96 238.8 96 230.8ZM240.564 273.2V302H140.764V160H238.764V188.8H173.564V216.4H229.564V243H173.564V273.2H240.564ZM360.691 188.8H317.491V302H284.691V188.8H241.291V160H360.691V188.8ZM468.509 273.2V302H368.709V160H466.709V188.8H401.509V216.4H457.509V243H401.509V273.2H468.509ZM469.892 229.8C469.892 221.133 471.492 212.667 474.692 204.4C477.892 196 482.559 188.4 488.692 181.6C494.826 174.8 502.292 169.4 511.092 165.4C519.892 161.267 529.892 159.2 541.092 159.2C554.426 159.2 565.959 162.067 575.692 167.8C585.559 173.533 592.892 181 597.692 190.2L572.492 207.8C570.359 202.733 567.492 198.8 563.892 196C560.426 193.2 556.559 191.267 552.292 190.2C548.159 189 544.159 188.4 540.292 188.4C534.026 188.4 528.559 189.667 523.892 192.2C519.226 194.6 515.359 197.867 512.292 202C509.226 206.133 506.959 210.733 505.492 215.8C504.026 220.867 503.292 225.933 503.292 231C503.292 236.6 504.159 242 505.892 247.2C507.626 252.4 510.092 257 513.292 261C516.626 265 520.626 268.2 525.292 270.6C529.959 272.867 535.092 274 540.692 274C544.692 274 548.759 273.333 552.892 272C557.026 270.667 560.826 268.6 564.292 265.8C567.892 262.867 570.626 259.067 572.492 254.4L599.292 270.2C596.492 277.133 591.892 283.067 585.492 288C579.092 292.933 571.826 296.733 563.692 299.4C555.692 301.933 547.759 303.2 539.892 303.2C529.626 303.2 520.159 301.133 511.492 297C502.959 292.733 495.559 287.133 489.292 280.2C483.159 273.133 478.359 265.267 474.892 256.6C471.559 247.8 469.892 238.867 469.892 229.8ZM715.988 188.8H672.788V302H639.988V188.8H596.588V160H715.988V188.8ZM724.006 302V160H756.806V302H724.006ZM838.167 303.2C827.501 303.2 817.834 301.2 809.167 297.2C800.634 293.067 793.234 287.6 786.967 280.8C780.834 273.867 776.101 266.133 772.767 257.6C769.434 248.933 767.767 240 767.767 230.8C767.767 221.333 769.501 212.333 772.967 203.8C776.567 195.267 781.501 187.667 787.767 181C794.167 174.2 801.701 168.867 810.367 165C819.034 161.133 828.501 159.2 838.767 159.2C849.301 159.2 858.834 161.267 867.367 165.4C876.034 169.4 883.434 174.867 889.567 181.8C895.834 188.733 900.634 196.533 903.967 205.2C907.301 213.733 908.967 222.467 908.967 231.4C908.967 240.867 907.234 249.867 903.767 258.4C900.301 266.933 895.367 274.6 888.967 281.4C882.567 288.067 875.034 293.4 866.367 297.4C857.834 301.267 848.434 303.2 838.167 303.2ZM801.167 231.2C801.167 236.667 801.967 242 803.567 247.2C805.167 252.267 807.501 256.8 810.567 260.8C813.767 264.8 817.701 268 822.367 270.4C827.034 272.8 832.367 274 838.367 274C844.634 274 850.101 272.8 854.767 270.4C859.434 267.867 863.301 264.533 866.367 260.4C869.434 256.267 871.701 251.667 873.167 246.6C874.767 241.4 875.567 236.133 875.567 230.8C875.567 225.333 874.767 220.067 873.167 215C871.567 209.933 869.167 205.4 865.967 201.4C862.767 197.267 858.834 194.067 854.167 191.8C849.501 189.533 844.234 188.4 838.367 188.4C832.101 188.4 826.634 189.6 821.967 192C817.434 194.4 813.567 197.667 810.367 201.8C807.301 205.8 804.967 210.4 803.367 215.6C801.901 220.667 801.167 225.867 801.167 231.2ZM952.72 220.8V302H919.92V160H945.92L1011.72 243.6V160H1044.52V302H1017.72L952.72 220.8Z" fill="#213543"/>
</g>
<defs>
<clipPath id="clip0_35_17">
<rect width="1534" height="307" fill="white"/>
</clipPath>
</defs>
</svg>
