<svg width="622" height="411" viewBox="0 0 622 411" fill="none" xmlns="http://www.w3.org/2000/svg">
<rect x="571" y="164" width="43" height="19" fill="black" stroke="black" stroke-width="4"/>
<rect x="535" y="72" width="51" height="21" fill="black" stroke="black" stroke-width="4"/>
<rect x="496" y="221" width="76" height="19" fill="black" stroke="black" stroke-width="4"/>
<path fill-rule="evenodd" clip-rule="evenodd" d="M355 8C392.127 8 426.892 20.5384 455.837 42H502V67H493.5V101H508.076C511.428 106.805 514.513 112.812 517.313 119H562V144H526.737C531.585 159.873 534.645 176.634 535.642 194H503V219H535.649C534.798 234.193 532.402 248.923 528.64 263H586V290H493V315H545V342H487.804C455.136 380.766 408.621 405 357 405H279V402.007C306.181 389.078 329.894 368.903 348.16 343.67L357 343.5C421.065 343.5 471 282.715 471 206.5C471 200.223 470.659 194.048 470.002 188H503.5V163H465.31C450.492 108.254 408.273 69 357 69H347.438C329.656 42.8858 306.192 21.7979 279.082 8H355ZM474.402 192C474.797 196.766 475 201.604 475 206.5C475 284.172 423.966 347.472 357.043 347.499L350.217 347.631C333.814 369.82 313.221 388.109 289.74 401H357C407.931 401 453.889 376.796 485.935 338H541V319H489V286H582V267H523.362C527.491 252.972 530.224 238.238 531.376 223H499V192H474.402ZM294.274 12C315.788 25.4261 334.577 43.5149 349.538 65H357C409.59 65 452.472 104.515 468.34 159H507.5V190H531.361C528.962 159.023 519.876 130.126 505.75 105H489.5V67H477.92L476.738 65.7666C444.79 32.4002 401.771 12 355 12H294.274ZM519.072 123C521.441 128.545 523.583 134.228 525.483 140.036C525.479 140.024 525.476 140.012 525.472 140H558V123H519.072ZM461.035 46C467.57 51.2159 473.783 56.8956 479.628 63H498V46H461.035Z" fill="black"/>
<path d="M186 10C283.565 10 363 97.7765 363 206.5C363 315.224 283.565 403 186 403H15V10H186ZM71 347H186C251.481 347 304 283.98 304 207C304 130.02 251.481 67 186 67H71V347Z" fill="black" stroke="black" stroke-width="4"/>
<path d="M183.5 139C220.779 139 251 169.221 251 206.5C251 243.779 220.779 274 183.5 274C146.221 274 116 243.779 116 206.5C116 169.221 146.221 139 183.5 139ZM183.5 172C164.446 172 149 187.446 149 206.5C149 225.554 164.446 241 183.5 241C202.554 241 218 225.554 218 206.5C218 187.446 202.554 172 183.5 172Z" fill="black"/>
</svg>
