<svg width="622" height="417" viewBox="0 0 622 417" fill="none" xmlns="http://www.w3.org/2000/svg">
<rect x="569" y="164" width="47" height="23" fill="#213544"/>
<rect x="533" y="72" width="55" height="25" fill="#213544"/>
<rect x="494" y="221" width="80" height="23" fill="#213544"/>
<rect x="465" y="317" width="80" height="27" fill="#FE483E"/>
<rect x="507" y="121" width="55" height="25" fill="#FE483E"/>
<rect x="447" y="44" width="55" height="25" fill="#FE483E"/>
<rect x="506" y="265" width="80" height="27" fill="#FE483E"/>
<path d="M355 10C402.972 10 447.005 30.9289 479.628 65H493.5V103H508.076C523.815 130.254 533.688 161.965 535.642 196H503V221H535.649C534.235 246.234 528.569 270.19 519.438 292H493V317H506.914C474.955 371.193 419.75 407 357 407H279V404.007C306.181 391.078 329.894 370.903 348.16 345.67L357 345.5C421.065 345.5 471 284.715 471 208.5C471 202.223 470.659 196.048 470.002 190H503.5V165H465.31C450.492 110.254 408.273 71 357 71H347.438C329.656 44.8858 306.192 23.7979 279.082 10H355Z" fill="#FE483E"/>
<path fill-rule="evenodd" clip-rule="evenodd" d="M186 10C284.859 10 365 98.8715 365 208.5C365 318.129 284.859 407 186 407H13V10H186ZM73 347H186C250.065 347 302 285.215 302 209C302 132.785 250.065 71 186 71H73V347Z" fill="#213544"/>
<path d="M183.5 141C220.779 141 251 171.221 251 208.5C251 245.779 220.779 276 183.5 276C146.221 276 116 245.779 116 208.5C116 171.221 146.221 141 183.5 141ZM183.5 176C165.551 176 151 190.551 151 208.5C151 226.449 165.551 241 183.5 241C201.449 241 216 226.449 216 208.5C216 190.551 201.449 176 183.5 176Z" fill="#213544"/>
</svg>
