<svg width="622" height="423" viewBox="0 0 622 423" fill="none" xmlns="http://www.w3.org/2000/svg">
<rect x="569" y="167" width="47" height="23" fill="#5B7D96"/>
<rect x="533" y="75" width="55" height="25" fill="#5B7D96"/>
<rect x="494" y="224" width="80" height="23" fill="#5B7D96"/>
<rect x="465" y="320" width="80" height="27" fill="#FE483E"/>
<rect x="507" y="124" width="55" height="25" fill="#FE483E"/>
<rect x="447" y="47" width="55" height="25" fill="#FE483E"/>
<rect x="506" y="268" width="80" height="27" fill="#FE483E"/>
<path d="M355 13C402.972 13 447.005 33.9289 479.628 68H493.5V106H508.076C523.815 133.254 533.688 164.965 535.642 199H503V224H535.649C534.235 249.234 528.569 273.19 519.438 295H493V320H506.914C474.955 374.193 419.75 410 357 410H279V407.007C306.181 394.078 329.894 373.903 348.16 348.67L357 348.5C421.065 348.5 471 287.715 471 211.5C471 205.223 470.659 199.048 470.002 193H503.5V168H465.31C450.492 113.254 408.273 74 357 74H347.438C329.656 47.8858 306.192 26.7979 279.082 13H355Z" fill="#FE483E"/>
<path fill-rule="evenodd" clip-rule="evenodd" d="M186 13C284.859 13 365 101.871 365 211.5C365 321.129 284.859 410 186 410H13V13H186ZM73 350H186C250.065 350 302 288.215 302 212C302 135.785 250.065 74 186 74H73V350Z" fill="#5B7D96"/>
<path d="M183.5 144C220.779 144 251 174.221 251 211.5C251 248.779 220.779 279 183.5 279C146.221 279 116 248.779 116 211.5C116 174.221 146.221 144 183.5 144ZM183.5 179C165.551 179 151 193.551 151 211.5C151 229.449 165.551 244 183.5 244C201.449 244 216 229.449 216 211.5C216 193.551 201.449 179 183.5 179Z" fill="#5B7D96"/>
</svg>
