<svg width="1534" height="307" viewBox="0 0 1534 307" fill="none" xmlns="http://www.w3.org/2000/svg">
<g clip-path="url(#clip0_35_46)">
<mask id="path-1-outside-1_35_46" maskUnits="userSpaceOnUse" x="3" y="7" width="1044" height="149" fill="black">
<rect fill="white" x="3" y="7" width="1044" height="149"/>
<path d="M5.6 152V9.99999H58.6C74.2 9.99999 87.2 13.2 97.6 19.6C108.133 25.8667 116.067 34.4 121.4 45.2C126.733 55.8667 129.4 67.7333 129.4 80.8C129.4 95.2 126.467 107.733 120.6 118.4C114.733 129.067 106.467 137.333 95.8 143.2C85.2667 149.067 72.8667 152 58.6 152H5.6ZM96 80.8C96 72.5333 94.5333 65.2667 91.6 59C88.6667 52.6 84.4 47.6667 78.8 44.2C73.2 40.6 66.4667 38.8 58.6 38.8H38.4V123.2H58.6C66.6 123.2 73.3333 121.4 78.8 117.8C84.4 114.067 88.6667 109 91.6 102.6C94.5333 96.0667 96 88.8 96 80.8ZM240.564 123.2V152H140.764V9.99999H238.764V38.8H173.564V66.4H229.564V93H173.564V123.2H240.564ZM241.947 79.8C241.947 71.1333 243.547 62.6667 246.747 54.4C249.947 46 254.614 38.4 260.747 31.6C266.88 24.8 274.347 19.4 283.147 15.4C291.947 11.2667 301.947 9.19999 313.147 9.19999C326.48 9.19999 338.014 12.0667 347.747 17.8C357.614 23.5333 364.947 31 369.747 40.2L344.547 57.8C342.414 52.7333 339.547 48.8 335.947 46C332.48 43.2 328.614 41.2667 324.347 40.2C320.214 39 316.214 38.4 312.347 38.4C306.08 38.4 300.614 39.6667 295.947 42.2C291.28 44.6 287.414 47.8667 284.347 52C281.28 56.1333 279.014 60.7333 277.547 65.8C276.08 70.8667 275.347 75.9333 275.347 81C275.347 86.6 276.214 92 277.947 97.2C279.68 102.4 282.147 107 285.347 111C288.68 115 292.68 118.2 297.347 120.6C302.014 122.867 307.147 124 312.747 124C316.747 124 320.814 123.333 324.947 122C329.08 120.667 332.88 118.6 336.347 115.8C339.947 112.867 342.68 109.067 344.547 104.4L371.347 120.2C368.547 127.133 363.947 133.067 357.547 138C351.147 142.933 343.88 146.733 335.747 149.4C327.747 151.933 319.814 153.2 311.947 153.2C301.68 153.2 292.214 151.133 283.547 147C275.014 142.733 267.614 137.133 261.347 130.2C255.214 123.133 250.414 115.267 246.947 106.6C243.614 97.8 241.947 88.8667 241.947 79.8ZM479.642 123.2V152H379.842V9.99999H477.842V38.8H412.642V66.4H468.642V93H412.642V123.2H479.642ZM491.569 152V9.99999H552.169C558.969 9.99999 565.169 11.4 570.769 14.2C576.502 16.8667 581.435 20.5333 585.569 25.2C589.702 29.7333 592.902 34.8667 595.169 40.6C597.435 46.3333 598.569 52.2 598.569 58.2C598.569 66.3333 596.635 74.0667 592.769 81.4C589.035 88.7333 583.769 94.7333 576.969 99.4C570.302 103.933 562.369 106.2 553.169 106.2H524.369V152H491.569ZM524.369 77.6H551.169C553.702 77.6 556.035 76.8667 558.169 75.4C560.302 73.9333 562.035 71.7333 563.369 68.8C564.702 65.8667 565.369 62.2667 565.369 58C565.369 53.6 564.569 50 562.969 47.2C561.502 44.2667 559.569 42.1333 557.169 40.8C554.902 39.4667 552.502 38.8 549.969 38.8H524.369V77.6ZM716.378 38.8H673.178V152H640.378V38.8H596.978V9.99999H716.378V38.8ZM724.397 152V9.99999H757.197V152H724.397ZM838.558 153.2C827.891 153.2 818.224 151.2 809.558 147.2C801.024 143.067 793.624 137.6 787.358 130.8C781.224 123.867 776.491 116.133 773.158 107.6C769.824 98.9333 768.158 90 768.158 80.8C768.158 71.3333 769.891 62.3333 773.358 53.8C776.958 45.2667 781.891 37.6667 788.158 31C794.558 24.2 802.091 18.8667 810.758 15C819.424 11.1333 828.891 9.19999 839.158 9.19999C849.691 9.19999 859.224 11.2667 867.758 15.4C876.424 19.4 883.824 24.8667 889.958 31.8C896.224 38.7333 901.024 46.5333 904.358 55.2C907.691 63.7333 909.358 72.4667 909.358 81.4C909.358 90.8667 907.624 99.8667 904.158 108.4C900.691 116.933 895.758 124.6 889.358 131.4C882.958 138.067 875.424 143.4 866.758 147.4C858.224 151.267 848.824 153.2 838.558 153.2ZM801.558 81.2C801.558 86.6667 802.358 92 803.958 97.2C805.558 102.267 807.891 106.8 810.958 110.8C814.158 114.8 818.091 118 822.758 120.4C827.424 122.8 832.758 124 838.758 124C845.024 124 850.491 122.8 855.158 120.4C859.824 117.867 863.691 114.533 866.758 110.4C869.824 106.267 872.091 101.667 873.558 96.6C875.158 91.4 875.958 86.1333 875.958 80.8C875.958 75.3333 875.158 70.0667 873.558 65C871.958 59.9333 869.558 55.4 866.358 51.4C863.158 47.2667 859.224 44.0667 854.558 41.8C849.891 39.5333 844.624 38.4 838.758 38.4C832.491 38.4 827.024 39.6 822.358 42C817.824 44.4 813.958 47.6667 810.758 51.8C807.691 55.8 805.358 60.4 803.758 65.6C802.291 70.6667 801.558 75.8667 801.558 81.2ZM953.111 70.8V152H920.311V9.99999H946.311L1012.11 93.6V9.99999H1044.91V152H1018.11L953.111 70.8Z"/>
</mask>
<path d="M5.6 152V9.99999H58.6C74.2 9.99999 87.2 13.2 97.6 19.6C108.133 25.8667 116.067 34.4 121.4 45.2C126.733 55.8667 129.4 67.7333 129.4 80.8C129.4 95.2 126.467 107.733 120.6 118.4C114.733 129.067 106.467 137.333 95.8 143.2C85.2667 149.067 72.8667 152 58.6 152H5.6ZM96 80.8C96 72.5333 94.5333 65.2667 91.6 59C88.6667 52.6 84.4 47.6667 78.8 44.2C73.2 40.6 66.4667 38.8 58.6 38.8H38.4V123.2H58.6C66.6 123.2 73.3333 121.4 78.8 117.8C84.4 114.067 88.6667 109 91.6 102.6C94.5333 96.0667 96 88.8 96 80.8ZM240.564 123.2V152H140.764V9.99999H238.764V38.8H173.564V66.4H229.564V93H173.564V123.2H240.564ZM241.947 79.8C241.947 71.1333 243.547 62.6667 246.747 54.4C249.947 46 254.614 38.4 260.747 31.6C266.88 24.8 274.347 19.4 283.147 15.4C291.947 11.2667 301.947 9.19999 313.147 9.19999C326.48 9.19999 338.014 12.0667 347.747 17.8C357.614 23.5333 364.947 31 369.747 40.2L344.547 57.8C342.414 52.7333 339.547 48.8 335.947 46C332.48 43.2 328.614 41.2667 324.347 40.2C320.214 39 316.214 38.4 312.347 38.4C306.08 38.4 300.614 39.6667 295.947 42.2C291.28 44.6 287.414 47.8667 284.347 52C281.28 56.1333 279.014 60.7333 277.547 65.8C276.08 70.8667 275.347 75.9333 275.347 81C275.347 86.6 276.214 92 277.947 97.2C279.68 102.4 282.147 107 285.347 111C288.68 115 292.68 118.2 297.347 120.6C302.014 122.867 307.147 124 312.747 124C316.747 124 320.814 123.333 324.947 122C329.08 120.667 332.88 118.6 336.347 115.8C339.947 112.867 342.68 109.067 344.547 104.4L371.347 120.2C368.547 127.133 363.947 133.067 357.547 138C351.147 142.933 343.88 146.733 335.747 149.4C327.747 151.933 319.814 153.2 311.947 153.2C301.68 153.2 292.214 151.133 283.547 147C275.014 142.733 267.614 137.133 261.347 130.2C255.214 123.133 250.414 115.267 246.947 106.6C243.614 97.8 241.947 88.8667 241.947 79.8ZM479.642 123.2V152H379.842V9.99999H477.842V38.8H412.642V66.4H468.642V93H412.642V123.2H479.642ZM491.569 152V9.99999H552.169C558.969 9.99999 565.169 11.4 570.769 14.2C576.502 16.8667 581.435 20.5333 585.569 25.2C589.702 29.7333 592.902 34.8667 595.169 40.6C597.435 46.3333 598.569 52.2 598.569 58.2C598.569 66.3333 596.635 74.0667 592.769 81.4C589.035 88.7333 583.769 94.7333 576.969 99.4C570.302 103.933 562.369 106.2 553.169 106.2H524.369V152H491.569ZM524.369 77.6H551.169C553.702 77.6 556.035 76.8667 558.169 75.4C560.302 73.9333 562.035 71.7333 563.369 68.8C564.702 65.8667 565.369 62.2667 565.369 58C565.369 53.6 564.569 50 562.969 47.2C561.502 44.2667 559.569 42.1333 557.169 40.8C554.902 39.4667 552.502 38.8 549.969 38.8H524.369V77.6ZM716.378 38.8H673.178V152H640.378V38.8H596.978V9.99999H716.378V38.8ZM724.397 152V9.99999H757.197V152H724.397ZM838.558 153.2C827.891 153.2 818.224 151.2 809.558 147.2C801.024 143.067 793.624 137.6 787.358 130.8C781.224 123.867 776.491 116.133 773.158 107.6C769.824 98.9333 768.158 90 768.158 80.8C768.158 71.3333 769.891 62.3333 773.358 53.8C776.958 45.2667 781.891 37.6667 788.158 31C794.558 24.2 802.091 18.8667 810.758 15C819.424 11.1333 828.891 9.19999 839.158 9.19999C849.691 9.19999 859.224 11.2667 867.758 15.4C876.424 19.4 883.824 24.8667 889.958 31.8C896.224 38.7333 901.024 46.5333 904.358 55.2C907.691 63.7333 909.358 72.4667 909.358 81.4C909.358 90.8667 907.624 99.8667 904.158 108.4C900.691 116.933 895.758 124.6 889.358 131.4C882.958 138.067 875.424 143.4 866.758 147.4C858.224 151.267 848.824 153.2 838.558 153.2ZM801.558 81.2C801.558 86.6667 802.358 92 803.958 97.2C805.558 102.267 807.891 106.8 810.958 110.8C814.158 114.8 818.091 118 822.758 120.4C827.424 122.8 832.758 124 838.758 124C845.024 124 850.491 122.8 855.158 120.4C859.824 117.867 863.691 114.533 866.758 110.4C869.824 106.267 872.091 101.667 873.558 96.6C875.158 91.4 875.958 86.1333 875.958 80.8C875.958 75.3333 875.158 70.0667 873.558 65C871.958 59.9333 869.558 55.4 866.358 51.4C863.158 47.2667 859.224 44.0667 854.558 41.8C849.891 39.5333 844.624 38.4 838.758 38.4C832.491 38.4 827.024 39.6 822.358 42C817.824 44.4 813.958 47.6667 810.758 51.8C807.691 55.8 805.358 60.4 803.758 65.6C802.291 70.6667 801.558 75.8667 801.558 81.2ZM953.111 70.8V152H920.311V9.99999H946.311L1012.11 93.6V9.99999H1044.91V152H1018.11L953.111 70.8Z" fill="white"/>
<path d="M5.6 152H3.6V154H5.6V152ZM5.6 9.99999V7.99999H3.6V9.99999H5.6ZM97.6 19.6L96.5518 21.3033L96.5646 21.3111L96.5774 21.3188L97.6 19.6ZM121.4 45.2L119.607 46.0856L119.611 46.0944L121.4 45.2ZM120.6 118.4L118.848 117.436L120.6 118.4ZM95.8 143.2L94.8362 141.448L94.8269 141.453L95.8 143.2ZM91.6 59L89.7819 59.8333L89.7852 59.8406L89.7886 59.8479L91.6 59ZM78.8 44.2L77.7185 45.8823L77.7328 45.8916L77.7473 45.9005L78.8 44.2ZM38.4 38.8V36.8H36.4V38.8H38.4ZM38.4 123.2H36.4V125.2H38.4V123.2ZM78.8 117.8L79.9 119.47L79.9094 119.464L78.8 117.8ZM91.6 102.6L93.4181 103.433L93.4214 103.426L93.4245 103.419L91.6 102.6ZM5.6 152H7.6V9.99999H5.6H3.6V152H5.6ZM5.6 9.99999V12H58.6V9.99999V7.99999H5.6V9.99999ZM58.6 9.99999V12C73.9312 12 86.5434 15.1443 96.5518 21.3033L97.6 19.6L98.6482 17.8967C87.8566 11.2557 74.4688 7.99999 58.6 7.99999V9.99999ZM97.6 19.6L96.5774 21.3188C106.785 27.3917 114.448 35.6383 119.607 46.0856L121.4 45.2L123.193 44.3144C117.686 33.1617 109.482 24.3417 98.6226 17.8812L97.6 19.6ZM121.4 45.2L119.611 46.0944C124.793 56.4576 127.4 68.0136 127.4 80.8H129.4H131.4C131.4 67.453 128.674 55.2757 123.189 44.3056L121.4 45.2ZM129.4 80.8H127.4C127.4 94.9247 124.524 107.115 118.848 117.436L120.6 118.4L122.352 119.364C128.409 108.352 131.4 95.4753 131.4 80.8H129.4ZM120.6 118.4L118.848 117.436C113.164 127.771 105.171 135.764 94.8362 141.448L95.8 143.2L96.7638 144.952C107.763 138.903 116.303 130.363 122.352 119.364L120.6 118.4ZM95.8 143.2L94.8269 141.453C84.6413 147.126 72.5886 150 58.6 150V152V154C73.1447 154 85.892 151.008 96.7732 144.947L95.8 143.2ZM58.6 152V150H5.6V152V154H58.6V152ZM96 80.8H98C98 72.2966 96.4908 64.7308 93.4114 58.1521L91.6 59L89.7886 59.8479C92.5759 65.8025 94 72.7701 94 80.8H96ZM91.6 59L93.4181 58.1667C90.3325 51.4344 85.8111 46.188 79.8527 42.4995L78.8 44.2L77.7473 45.9005C82.9889 49.1453 87.0008 53.7655 89.7819 59.8333L91.6 59ZM78.8 44.2L79.8815 42.5176C73.9041 38.675 66.7794 36.8 58.6 36.8V38.8V40.8C66.1539 40.8 72.4959 42.5249 77.7185 45.8823L78.8 44.2ZM58.6 38.8V36.8H38.4V38.8V40.8H58.6V38.8ZM38.4 38.8H36.4V123.2H38.4H40.4V38.8H38.4ZM38.4 123.2V125.2H58.6V123.2V121.2H38.4V123.2ZM58.6 123.2V125.2C66.9035 125.2 74.0406 123.329 79.9 119.47L78.8 117.8L77.7 116.13C72.6261 119.471 66.2966 121.2 58.6 121.2V123.2ZM78.8 117.8L79.9094 119.464C85.8327 115.515 90.3377 110.154 93.4181 103.433L91.6 102.6L89.7819 101.767C86.9957 107.846 82.9673 112.618 77.6906 116.136L78.8 117.8ZM91.6 102.6L93.4245 103.419C96.4864 96.5996 98 89.0492 98 80.8H96H94C94 88.5508 92.5803 95.5338 89.7755 101.781L91.6 102.6ZM240.564 123.2H242.564V121.2H240.564V123.2ZM240.564 152V154H242.564V152H240.564ZM140.764 152H138.764V154H140.764V152ZM140.764 9.99999V7.99999H138.764V9.99999H140.764ZM238.764 9.99999H240.764V7.99999H238.764V9.99999ZM238.764 38.8V40.8H240.764V38.8H238.764ZM173.564 38.8V36.8H171.564V38.8H173.564ZM173.564 66.4H171.564V68.4H173.564V66.4ZM229.564 66.4H231.564V64.4H229.564V66.4ZM229.564 93V95H231.564V93H229.564ZM173.564 93V91H171.564V93H173.564ZM173.564 123.2H171.564V125.2H173.564V123.2ZM240.564 123.2H238.564V152H240.564H242.564V123.2H240.564ZM240.564 152V150H140.764V152V154H240.564V152ZM140.764 152H142.764V9.99999H140.764H138.764V152H140.764ZM140.764 9.99999V12H238.764V9.99999V7.99999H140.764V9.99999ZM238.764 9.99999H236.764V38.8H238.764H240.764V9.99999H238.764ZM238.764 38.8V36.8H173.564V38.8V40.8H238.764V38.8ZM173.564 38.8H171.564V66.4H173.564H175.564V38.8H173.564ZM173.564 66.4V68.4H229.564V66.4V64.4H173.564V66.4ZM229.564 66.4H227.564V93H229.564H231.564V66.4H229.564ZM229.564 93V91H173.564V93V95H229.564V93ZM173.564 93H171.564V123.2H173.564H175.564V93H173.564ZM173.564 123.2V125.2H240.564V123.2V121.2H173.564V123.2ZM246.747 54.4L248.612 55.122L248.616 55.112L246.747 54.4ZM260.747 31.6L259.262 30.2605L260.747 31.6ZM283.147 15.4L283.974 17.2207L283.986 17.2156L283.997 17.2103L283.147 15.4ZM347.747 17.8L346.732 19.5233L346.742 19.5293L347.747 17.8ZM369.747 40.2L370.892 41.8397L372.333 40.8332L371.52 39.2749L369.747 40.2ZM344.547 57.8L342.704 58.5761L343.664 60.8563L345.692 59.4397L344.547 57.8ZM335.947 46L334.69 47.5559L334.704 47.5674L334.719 47.5787L335.947 46ZM324.347 40.2L323.789 42.1207L323.825 42.1312L323.862 42.1403L324.347 40.2ZM295.947 42.2L296.862 43.9786L296.881 43.9684L296.901 43.9577L295.947 42.2ZM284.347 52L285.953 53.1917L284.347 52ZM277.547 65.8L279.468 66.3561L277.547 65.8ZM277.947 97.2L279.844 96.5675L277.947 97.2ZM285.347 111L283.785 112.249L283.798 112.265L283.81 112.28L285.347 111ZM297.347 120.6L296.432 122.379L296.453 122.389L296.473 122.399L297.347 120.6ZM324.947 122L325.561 123.903L324.947 122ZM336.347 115.8L337.604 117.356L337.61 117.35L336.347 115.8ZM344.547 104.4L345.563 102.677L343.555 101.494L342.69 103.657L344.547 104.4ZM371.347 120.2L373.201 120.949L373.846 119.352L372.363 118.477L371.347 120.2ZM357.547 138L356.326 136.416L357.547 138ZM335.747 149.4L336.351 151.307L336.36 151.304L336.37 151.3L335.747 149.4ZM283.547 147L282.652 148.789L282.669 148.797L282.686 148.805L283.547 147ZM261.347 130.2L259.836 131.511L259.85 131.526L259.863 131.541L261.347 130.2ZM246.947 106.6L245.077 107.308L245.083 107.326L245.09 107.343L246.947 106.6ZM241.947 79.8H243.947C243.947 71.3859 245.499 63.1637 248.612 55.122L246.747 54.4L244.882 53.678C241.595 62.1696 239.947 70.8807 239.947 79.8H241.947ZM246.747 54.4L248.616 55.112C251.726 46.9475 256.261 39.5594 262.232 32.9395L260.747 31.6L259.262 30.2605C252.966 37.2406 248.168 45.0525 244.878 53.688L246.747 54.4ZM260.747 31.6L262.232 32.9395C268.171 26.3546 275.41 21.1136 283.974 17.2207L283.147 15.4L282.319 13.5793C273.284 17.6864 265.589 23.2454 259.262 30.2605L260.747 31.6ZM283.147 15.4L283.997 17.2103C292.494 13.2195 302.196 11.2 313.147 11.2V9.19999V7.19999C301.698 7.19999 291.4 9.31379 282.297 13.5897L283.147 15.4ZM313.147 9.19999V11.2C326.188 11.2 337.358 14.0014 346.732 19.5233L347.747 17.8L348.762 16.0767C338.67 10.1319 326.772 7.19999 313.147 7.19999V9.19999ZM347.747 17.8L346.742 19.5293C356.315 25.0922 363.366 32.2934 367.974 41.1251L369.747 40.2L371.52 39.2749C366.528 29.7066 358.912 21.9745 348.752 16.0707L347.747 17.8ZM369.747 40.2L368.602 38.5603L343.402 56.1603L344.547 57.8L345.692 59.4397L370.892 41.8397L369.747 40.2ZM344.547 57.8L346.39 57.0239C344.151 51.7061 341.096 47.4709 337.175 44.4213L335.947 46L334.719 47.5787C337.998 50.1291 340.676 53.7606 342.704 58.5761L344.547 57.8ZM335.947 46L337.204 44.4441C333.514 41.4639 329.385 39.3979 324.832 38.2597L324.347 40.2L323.862 42.1403C327.843 43.1355 331.447 44.9361 334.69 47.5559L335.947 46ZM324.347 40.2L324.905 38.2793C320.61 37.0326 316.422 36.4 312.347 36.4V38.4V40.4C316.005 40.4 319.817 40.9674 323.789 42.1207L324.347 40.2ZM312.347 38.4V36.4C305.807 36.4 300.001 37.7235 294.993 40.4423L295.947 42.2L296.901 43.9577C301.226 41.6098 306.353 40.4 312.347 40.4V38.4ZM295.947 42.2L295.032 40.4214C290.099 42.9587 285.994 46.424 282.741 50.8083L284.347 52L285.953 53.1917C288.834 49.3093 292.462 46.2413 296.862 43.9786L295.947 42.2ZM284.347 52L282.741 50.8083C279.528 55.1378 277.157 59.9541 275.626 65.2439L277.547 65.8L279.468 66.3561C280.87 61.5126 283.032 57.1288 285.953 53.1917L284.347 52ZM277.547 65.8L275.626 65.2439C274.109 70.4838 273.347 75.7376 273.347 81H275.347H277.347C277.347 76.1291 278.052 71.2495 279.468 66.3561L277.547 65.8ZM275.347 81H273.347C273.347 86.8102 274.247 92.4241 276.049 97.8325L277.947 97.2L279.844 96.5675C278.18 91.5759 277.347 86.3898 277.347 81H275.347ZM277.947 97.2L276.049 97.8325C277.852 103.241 280.428 108.053 283.785 112.249L285.347 111L286.909 109.751C283.866 105.947 281.508 101.559 279.844 96.5675L277.947 97.2ZM285.347 111L283.81 112.28C287.317 116.488 291.529 119.857 296.432 122.379L297.347 120.6L298.262 118.821C293.832 116.543 290.044 113.512 286.883 109.72L285.347 111ZM297.347 120.6L296.473 122.399C301.433 124.808 306.869 126 312.747 126V124V122C307.425 122 302.594 120.925 298.221 118.801L297.347 120.6ZM312.747 124V126C316.972 126 321.246 125.295 325.561 123.903L324.947 122L324.333 120.097C320.381 121.371 316.521 122 312.747 122V124ZM324.947 122L325.561 123.903C329.934 122.493 333.951 120.306 337.604 117.356L336.347 115.8L335.09 114.244C331.81 116.894 328.226 118.841 324.333 120.097L324.947 122ZM336.347 115.8L337.61 117.35C341.495 114.185 344.422 110.098 346.404 105.143L344.547 104.4L342.69 103.657C340.939 108.035 338.399 111.548 335.084 114.25L336.347 115.8ZM344.547 104.4L343.531 106.123L370.331 121.923L371.347 120.2L372.363 118.477L345.563 102.677L344.547 104.4ZM371.347 120.2L369.492 119.451C366.836 126.028 362.468 131.682 356.326 136.416L357.547 138L358.768 139.584C365.426 134.452 370.258 128.238 373.201 120.949L371.347 120.2ZM357.547 138L356.326 136.416C350.116 141.203 343.054 144.899 335.124 147.5L335.747 149.4L336.37 151.3C344.706 148.567 352.178 144.664 358.768 139.584L357.547 138ZM335.747 149.4L335.143 147.493C327.325 149.969 319.595 151.2 311.947 151.2V153.2V155.2C320.032 155.2 328.168 153.898 336.351 151.307L335.747 149.4ZM311.947 153.2V151.2C301.957 151.2 292.787 149.191 284.408 145.195L283.547 147L282.686 148.805C291.64 153.076 301.403 155.2 311.947 155.2V153.2ZM283.547 147L284.441 145.211C276.126 141.053 268.927 135.604 262.831 128.859L261.347 130.2L259.863 131.541C266.3 138.663 273.901 144.413 282.652 148.789L283.547 147ZM261.347 130.2L262.857 128.889C256.87 121.991 252.187 114.316 248.804 105.857L246.947 106.6L245.09 107.343C248.64 116.217 253.557 124.276 259.836 131.511L261.347 130.2ZM246.947 106.6L248.817 105.892C245.566 97.3092 243.947 88.6155 243.947 79.8H241.947H239.947C239.947 89.1179 241.661 98.2908 245.077 107.308L246.947 106.6ZM479.642 123.2H481.642V121.2H479.642V123.2ZM479.642 152V154H481.642V152H479.642ZM379.842 152H377.842V154H379.842V152ZM379.842 9.99999V7.99999H377.842V9.99999H379.842ZM477.842 9.99999H479.842V7.99999H477.842V9.99999ZM477.842 38.8V40.8H479.842V38.8H477.842ZM412.642 38.8V36.8H410.642V38.8H412.642ZM412.642 66.4H410.642V68.4H412.642V66.4ZM468.642 66.4H470.642V64.4H468.642V66.4ZM468.642 93V95H470.642V93H468.642ZM412.642 93V91H410.642V93H412.642ZM412.642 123.2H410.642V125.2H412.642V123.2ZM479.642 123.2H477.642V152H479.642H481.642V123.2H479.642ZM479.642 152V150H379.842V152V154H479.642V152ZM379.842 152H381.842V9.99999H379.842H377.842V152H379.842ZM379.842 9.99999V12H477.842V9.99999V7.99999H379.842V9.99999ZM477.842 9.99999H475.842V38.8H477.842H479.842V9.99999H477.842ZM477.842 38.8V36.8H412.642V38.8V40.8H477.842V38.8ZM412.642 38.8H410.642V66.4H412.642H414.642V38.8H412.642ZM412.642 66.4V68.4H468.642V66.4V64.4H412.642V66.4ZM468.642 66.4H466.642V93H468.642H470.642V66.4H468.642ZM468.642 93V91H412.642V93V95H468.642V93ZM412.642 93H410.642V123.2H412.642H414.642V93H412.642ZM412.642 123.2V125.2H479.642V123.2V121.2H412.642V123.2ZM491.569 152H489.569V154H491.569V152ZM491.569 9.99999V7.99999H489.569V9.99999H491.569ZM570.769 14.2L569.874 15.9889L569.9 16.0015L569.925 16.0134L570.769 14.2ZM585.569 25.2L584.072 26.5261L584.081 26.5369L584.091 26.5475L585.569 25.2ZM595.169 40.6L597.029 39.8647V39.8647L595.169 40.6ZM592.769 81.4L591 80.4672L590.993 80.4799L590.986 80.4926L592.769 81.4ZM576.969 99.4L578.093 101.054L578.1 101.049L576.969 99.4ZM524.369 106.2V104.2H522.369V106.2H524.369ZM524.369 152V154H526.369V152H524.369ZM524.369 77.6H522.369V79.6H524.369V77.6ZM563.369 68.8L565.19 69.6276L563.369 68.8ZM562.969 47.2L561.18 48.0944L561.205 48.1441L561.232 48.1923L562.969 47.2ZM557.169 40.8L556.155 42.5239L556.176 42.5363L556.197 42.5483L557.169 40.8ZM524.369 38.8V36.8H522.369V38.8H524.369ZM491.569 152H493.569V9.99999H491.569H489.569V152H491.569ZM491.569 9.99999V12H552.169V9.99999V7.99999H491.569V9.99999ZM552.169 9.99999V12C558.685 12 564.575 13.3394 569.874 15.9889L570.769 14.2L571.663 12.4111C565.762 9.46059 559.252 7.99999 552.169 7.99999V9.99999ZM570.769 14.2L569.925 16.0134C575.413 18.566 580.123 22.068 584.072 26.5261L585.569 25.2L587.066 23.8739C582.748 18.9986 577.591 15.1674 571.612 12.3866L570.769 14.2ZM585.569 25.2L584.091 26.5475C588.06 30.9007 591.131 35.8264 593.309 41.3353L595.169 40.6L597.029 39.8647C594.673 33.907 591.344 28.5659 587.047 23.8525L585.569 25.2ZM595.169 40.6L593.309 41.3353C595.486 46.8411 596.569 52.4587 596.569 58.2H598.569H600.569C600.569 51.9413 599.385 45.8255 597.029 39.8647L595.169 40.6ZM598.569 58.2H596.569C596.569 66.0018 594.718 73.4156 591 80.4672L592.769 81.4L594.538 82.3328C598.553 74.7177 600.569 66.6649 600.569 58.2H598.569ZM592.769 81.4L590.986 80.4926C587.405 87.5276 582.362 93.2729 575.837 97.751L576.969 99.4L578.1 101.049C585.175 96.1938 590.666 89.9391 594.551 82.3074L592.769 81.4ZM576.969 99.4L575.844 97.7461C569.554 102.023 562.026 104.2 553.169 104.2V106.2V108.2C562.711 108.2 571.05 105.844 578.093 101.054L576.969 99.4ZM553.169 106.2V104.2H524.369V106.2V108.2H553.169V106.2ZM524.369 106.2H522.369V152H524.369H526.369V106.2H524.369ZM524.369 152V150H491.569V152V154H524.369V152ZM524.369 77.6V79.6H551.169V77.6V75.6H524.369V77.6ZM551.169 77.6V79.6C554.116 79.6 556.843 78.7386 559.302 77.0481L558.169 75.4L557.036 73.7519C555.228 74.9947 553.288 75.6 551.169 75.6V77.6ZM558.169 75.4L559.302 77.0481C561.8 75.3306 563.742 72.8114 565.19 69.6276L563.369 68.8L561.548 67.9724C560.329 70.6552 558.804 72.536 557.036 73.7519L558.169 75.4ZM563.369 68.8L565.19 69.6276C566.673 66.3646 567.369 62.464 567.369 58H565.369H563.369C563.369 62.0693 562.732 65.3688 561.548 67.9724L563.369 68.8ZM565.369 58H567.369C567.369 53.3735 566.53 49.4003 564.705 46.2077L562.969 47.2L561.232 48.1923C562.608 50.5997 563.369 53.8265 563.369 58H565.369ZM562.969 47.2L564.758 46.3056C563.146 43.0832 560.956 40.6163 558.14 39.0517L557.169 40.8L556.197 42.5483C558.181 43.6504 559.858 45.4501 561.18 48.0944L562.969 47.2ZM557.169 40.8L558.183 39.0761C555.621 37.5692 552.873 36.8 549.969 36.8V38.8V40.8C552.132 40.8 554.183 41.3641 556.155 42.5239L557.169 40.8ZM549.969 38.8V36.8H524.369V38.8V40.8H549.969V38.8ZM524.369 38.8H522.369V77.6H524.369H526.369V38.8H524.369ZM716.378 38.8V40.8H718.378V38.8H716.378ZM673.178 38.8V36.8H671.178V38.8H673.178ZM673.178 152V154H675.178V152H673.178ZM640.378 152H638.378V154H640.378V152ZM640.378 38.8H642.378V36.8H640.378V38.8ZM596.978 38.8H594.978V40.8H596.978V38.8ZM596.978 9.99999V7.99999H594.978V9.99999H596.978ZM716.378 9.99999H718.378V7.99999H716.378V9.99999ZM716.378 38.8V36.8H673.178V38.8V40.8H716.378V38.8ZM673.178 38.8H671.178V152H673.178H675.178V38.8H673.178ZM673.178 152V150H640.378V152V154H673.178V152ZM640.378 152H642.378V38.8H640.378H638.378V152H640.378ZM640.378 38.8V36.8H596.978V38.8V40.8H640.378V38.8ZM596.978 38.8H598.978V9.99999H596.978H594.978V38.8H596.978ZM596.978 9.99999V12H716.378V9.99999V7.99999H596.978V9.99999ZM716.378 9.99999H714.378V38.8H716.378H718.378V9.99999H716.378ZM724.397 152H722.397V154H724.397V152ZM724.397 9.99999V7.99999H722.397V9.99999H724.397ZM757.197 9.99999H759.197V7.99999H757.197V9.99999ZM757.197 152V154H759.197V152H757.197ZM724.397 152H726.397V9.99999H724.397H722.397V152H724.397ZM724.397 9.99999V12H757.197V9.99999V7.99999H724.397V9.99999ZM757.197 9.99999H755.197V152H757.197H759.197V9.99999H757.197ZM757.197 152V150H724.397V152V154H757.197V152ZM809.558 147.2L808.686 149L808.703 149.008L808.72 149.016L809.558 147.2ZM787.358 130.8L785.86 132.125L785.873 132.14L785.887 132.155L787.358 130.8ZM773.158 107.6L771.291 108.318L771.295 108.328L773.158 107.6ZM773.358 53.8L771.515 53.0226L771.51 53.0349L771.505 53.0472L773.358 53.8ZM788.158 31L786.701 29.6293L786.701 29.6302L788.158 31ZM810.758 15L809.943 13.1735L810.758 15ZM867.758 15.4L866.886 17.2L866.903 17.2081L866.92 17.2159L867.758 15.4ZM889.958 31.8L888.46 33.1251L888.467 33.1331L888.474 33.1411L889.958 31.8ZM904.358 55.2L902.491 55.918L902.495 55.9277L904.358 55.2ZM904.158 108.4L902.305 107.647L904.158 108.4ZM889.358 131.4L890.801 132.785L890.807 132.778L890.814 132.771L889.358 131.4ZM866.758 147.4L867.583 149.222L867.596 149.216L866.758 147.4ZM803.958 97.2L802.046 97.7882L802.048 97.7952L802.051 97.8023L803.958 97.2ZM810.958 110.8L809.371 112.017L809.383 112.033L809.396 112.049L810.958 110.8ZM822.758 120.4L823.672 118.621L822.758 120.4ZM855.158 120.4L856.073 122.179L856.092 122.168L856.112 122.158L855.158 120.4ZM866.758 110.4L868.364 111.592L866.758 110.4ZM873.558 96.6L871.646 96.0118L871.641 96.0278L871.637 96.0439L873.558 96.6ZM873.558 65L871.651 65.6023L873.558 65ZM866.358 51.4L864.776 52.6243L864.786 52.6369L864.796 52.6494L866.358 51.4ZM854.558 41.8L853.684 43.599L854.558 41.8ZM822.358 42L821.443 40.2214L821.433 40.2269L821.422 40.2324L822.358 42ZM810.758 51.8L809.176 50.5756L809.171 50.5831L810.758 51.8ZM803.758 65.6L801.846 65.0118L801.841 65.0278L801.837 65.0439L803.758 65.6ZM838.558 153.2V151.2C828.146 151.2 818.77 149.249 810.396 145.384L809.558 147.2L808.72 149.016C817.679 153.151 827.636 155.2 838.558 155.2V153.2ZM809.558 147.2L810.43 145.4C802.116 141.373 794.921 136.055 788.829 129.445L787.358 130.8L785.887 132.155C792.328 139.145 799.933 144.76 808.686 149L809.558 147.2ZM787.358 130.8L788.856 129.475C782.877 122.716 778.268 115.184 775.021 106.872L773.158 107.6L771.295 108.328C774.715 117.082 779.572 125.018 785.86 132.125L787.358 130.8ZM773.158 107.6L775.024 106.882C771.778 98.4423 770.158 89.7522 770.158 80.8H768.158H766.158C766.158 90.2478 767.87 99.4244 771.291 108.318L773.158 107.6ZM768.158 80.8H770.158C770.158 71.5841 771.844 62.8403 775.211 54.5527L773.358 53.8L771.505 53.0472C767.938 61.8264 766.158 71.0826 766.158 80.8H768.158ZM773.358 53.8L775.201 54.5774C778.709 46.2601 783.513 38.8613 789.615 32.3698L788.158 31L786.701 29.6302C780.269 36.472 775.206 44.2732 771.515 53.0226L773.358 53.8ZM788.158 31L789.614 32.3707C795.83 25.7668 803.144 20.587 811.573 16.8265L810.758 15L809.943 13.1735C801.038 17.1463 793.286 22.6332 786.701 29.6293L788.158 31ZM810.758 15L811.573 16.8265C819.963 13.0833 829.149 11.2 839.158 11.2V9.19999V7.19999C828.634 7.19999 818.886 9.18333 809.943 13.1735L810.758 15ZM839.158 9.19999V11.2C849.423 11.2 858.653 13.2123 866.886 17.2L867.758 15.4L868.63 13.6C859.796 9.32105 849.959 7.19999 839.158 7.19999V9.19999ZM867.758 15.4L866.92 17.2159C875.343 21.1035 882.516 26.4059 888.46 33.1251L889.958 31.8L891.456 30.4749C885.133 23.3274 877.506 17.6965 868.596 13.5841L867.758 15.4ZM889.958 31.8L888.474 33.1411C894.577 39.8932 899.247 47.4823 902.491 55.918L904.358 55.2L906.224 54.482C902.802 45.5844 897.872 37.5734 891.442 30.4589L889.958 31.8ZM904.358 55.2L902.495 55.9277C905.74 64.2351 907.358 72.722 907.358 81.4H909.358H911.358C911.358 72.2113 909.642 63.2315 906.221 54.4723L904.358 55.2ZM909.358 81.4H907.358C907.358 90.6159 905.672 99.3597 902.305 107.647L904.158 108.4L906.011 109.153C909.577 100.374 911.358 91.1174 911.358 81.4H909.358ZM904.158 108.4L902.305 107.647C898.932 115.949 894.135 123.406 887.901 130.029L889.358 131.4L890.814 132.771C897.381 125.794 902.45 117.918 906.011 109.153L904.158 108.4ZM889.358 131.4L887.915 130.015C881.694 136.496 874.367 141.685 865.92 145.584L866.758 147.4L867.596 149.216C876.482 145.115 884.222 139.638 890.801 132.785L889.358 131.4ZM866.758 147.4L865.932 145.578C857.682 149.317 848.567 151.2 838.558 151.2V153.2V155.2C849.082 155.2 858.767 153.217 867.583 149.222L866.758 147.4ZM801.558 81.2H799.558C799.558 86.8651 800.387 92.3967 802.046 97.7882L803.958 97.2L805.869 96.6118C804.328 91.6033 803.558 86.4683 803.558 81.2H801.558ZM803.958 97.2L802.051 97.8023C803.717 103.079 806.155 107.822 809.371 112.017L810.958 110.8L812.545 109.583C809.628 105.778 807.399 101.455 805.865 96.5977L803.958 97.2ZM810.958 110.8L809.396 112.049C812.776 116.275 816.932 119.653 821.843 122.179L822.758 120.4L823.672 118.621C819.25 116.347 815.539 113.325 812.52 109.551L810.958 110.8ZM822.758 120.4L821.843 122.179C826.831 124.744 832.486 126 838.758 126V124V122C833.03 122 828.018 120.856 823.672 118.621L822.758 120.4ZM838.758 124V126C845.281 126 851.073 124.75 856.073 122.179L855.158 120.4L854.243 118.621C849.909 120.85 844.768 122 838.758 122V124ZM855.158 120.4L856.112 122.158C861.026 119.49 865.118 115.966 868.364 111.592L866.758 110.4L865.152 109.208C862.264 113.1 858.623 116.243 854.204 118.642L855.158 120.4ZM866.758 110.4L868.364 111.592C871.576 107.262 873.948 102.446 875.479 97.1561L873.558 96.6L871.637 96.0439C870.235 100.887 868.073 105.271 865.152 109.208L866.758 110.4ZM873.558 96.6L875.469 97.1882C877.127 91.8015 877.958 86.3367 877.958 80.8H875.958H873.958C873.958 85.9299 873.189 90.9985 871.646 96.0118L873.558 96.6ZM875.958 80.8H877.958C877.958 75.135 877.128 69.6648 875.465 64.3977L873.558 65L871.651 65.6023C873.187 70.4685 873.958 75.5317 873.958 80.8H875.958ZM873.558 65L875.465 64.3977C873.794 59.1048 871.279 54.3503 867.92 50.1506L866.358 51.4L864.796 52.6494C867.836 56.4497 870.122 60.7618 871.651 65.6023L873.558 65ZM866.358 51.4L867.939 50.1757C864.552 45.8008 860.377 42.4032 855.432 40.001L854.558 41.8L853.684 43.599C858.072 45.7301 861.763 48.7326 864.776 52.6243L866.358 51.4ZM854.558 41.8L855.432 40.001C850.459 37.5857 844.887 36.4 838.758 36.4V38.4V40.4C844.362 40.4 849.323 41.481 853.684 43.599L854.558 41.8ZM838.758 38.4V36.4C832.234 36.4 826.443 37.6502 821.443 40.2214L822.358 42L823.273 43.7786C827.606 41.5498 832.748 40.4 838.758 40.4V38.4ZM822.358 42L821.422 40.2324C816.632 42.7681 812.547 46.2218 809.176 50.5756L810.758 51.8L812.339 53.0243C815.369 49.1115 819.017 46.0319 823.294 43.7676L822.358 42ZM810.758 51.8L809.171 50.5831C805.948 54.7862 803.511 59.6028 801.846 65.0118L803.758 65.6L805.669 66.1882C807.205 61.1972 809.434 56.8138 812.345 53.0169L810.758 51.8ZM803.758 65.6L801.837 65.0439C800.317 70.2933 799.558 75.6806 799.558 81.2H801.558H803.558C803.558 76.0527 804.265 71.04 805.679 66.1561L803.758 65.6ZM953.111 70.8L954.672 69.5501L951.111 65.1012V70.8H953.111ZM953.111 152V154H955.111V152H953.111ZM920.311 152H918.311V154H920.311V152ZM920.311 9.99999V7.99999H918.311V9.99999H920.311ZM946.311 9.99999L947.883 8.76302L947.282 7.99999H946.311V9.99999ZM1012.11 93.6L1010.54 94.837L1014.11 99.3747V93.6H1012.11ZM1012.11 9.99999V7.99999H1010.11V9.99999H1012.11ZM1044.91 9.99999H1046.91V7.99999H1044.91V9.99999ZM1044.91 152V154H1046.91V152H1044.91ZM1018.11 152L1016.55 153.25L1017.15 154H1018.11V152ZM953.111 70.8H951.111V152H953.111H955.111V70.8H953.111ZM953.111 152V150H920.311V152V154H953.111V152ZM920.311 152H922.311V9.99999H920.311H918.311V152H920.311ZM920.311 9.99999V12H946.311V9.99999V7.99999H920.311V9.99999ZM946.311 9.99999L944.739 11.237L1010.54 94.837L1012.11 93.6L1013.68 92.363L947.883 8.76302L946.311 9.99999ZM1012.11 93.6H1014.11V9.99999H1012.11H1010.11V93.6H1012.11ZM1012.11 9.99999V12H1044.91V9.99999V7.99999H1012.11V9.99999ZM1044.91 9.99999H1042.91V152H1044.91H1046.91V9.99999H1044.91ZM1044.91 152V150H1018.11V152V154H1044.91V152ZM1018.11 152L1019.67 150.75L954.672 69.5501L953.111 70.8L951.55 72.0499L1016.55 153.25L1018.11 152Z" fill="black" mask="url(#path-1-outside-1_35_46)"/>
<path d="M5.6 302V160H58.6C74.2 160 87.2 163.2 97.6 169.6C108.133 175.867 116.067 184.4 121.4 195.2C126.733 205.867 129.4 217.733 129.4 230.8C129.4 245.2 126.467 257.733 120.6 268.4C114.733 279.067 106.467 287.333 95.8 293.2C85.2667 299.067 72.8667 302 58.6 302H5.6ZM96 230.8C96 222.533 94.5333 215.267 91.6 209C88.6667 202.6 84.4 197.667 78.8 194.2C73.2 190.6 66.4667 188.8 58.6 188.8H38.4V273.2H58.6C66.6 273.2 73.3333 271.4 78.8 267.8C84.4 264.067 88.6667 259 91.6 252.6C94.5333 246.067 96 238.8 96 230.8ZM240.564 273.2V302H140.764V160H238.764V188.8H173.564V216.4H229.564V243H173.564V273.2H240.564ZM360.691 188.8H317.491V302H284.691V188.8H241.291V160H360.691V188.8ZM468.509 273.2V302H368.709V160H466.709V188.8H401.509V216.4H457.509V243H401.509V273.2H468.509ZM469.892 229.8C469.892 221.133 471.492 212.667 474.692 204.4C477.892 196 482.559 188.4 488.692 181.6C494.826 174.8 502.292 169.4 511.092 165.4C519.892 161.267 529.892 159.2 541.092 159.2C554.426 159.2 565.959 162.067 575.692 167.8C585.559 173.533 592.892 181 597.692 190.2L572.492 207.8C570.359 202.733 567.492 198.8 563.892 196C560.426 193.2 556.559 191.267 552.292 190.2C548.159 189 544.159 188.4 540.292 188.4C534.026 188.4 528.559 189.667 523.892 192.2C519.226 194.6 515.359 197.867 512.292 202C509.226 206.133 506.959 210.733 505.492 215.8C504.026 220.867 503.292 225.933 503.292 231C503.292 236.6 504.159 242 505.892 247.2C507.626 252.4 510.092 257 513.292 261C516.626 265 520.626 268.2 525.292 270.6C529.959 272.867 535.092 274 540.692 274C544.692 274 548.759 273.333 552.892 272C557.026 270.667 560.826 268.6 564.292 265.8C567.892 262.867 570.626 259.067 572.492 254.4L599.292 270.2C596.492 277.133 591.892 283.067 585.492 288C579.092 292.933 571.826 296.733 563.692 299.4C555.692 301.933 547.759 303.2 539.892 303.2C529.626 303.2 520.159 301.133 511.492 297C502.959 292.733 495.559 287.133 489.292 280.2C483.159 273.133 478.359 265.267 474.892 256.6C471.559 247.8 469.892 238.867 469.892 229.8ZM715.988 188.8H672.788V302H639.988V188.8H596.588V160H715.988V188.8ZM724.006 302V160H756.806V302H724.006ZM838.167 303.2C827.501 303.2 817.834 301.2 809.167 297.2C800.634 293.067 793.234 287.6 786.967 280.8C780.834 273.867 776.101 266.133 772.767 257.6C769.434 248.933 767.767 240 767.767 230.8C767.767 221.333 769.501 212.333 772.967 203.8C776.567 195.267 781.501 187.667 787.767 181C794.167 174.2 801.701 168.867 810.367 165C819.034 161.133 828.501 159.2 838.767 159.2C849.301 159.2 858.834 161.267 867.367 165.4C876.034 169.4 883.434 174.867 889.567 181.8C895.834 188.733 900.634 196.533 903.967 205.2C907.301 213.733 908.967 222.467 908.967 231.4C908.967 240.867 907.234 249.867 903.767 258.4C900.301 266.933 895.367 274.6 888.967 281.4C882.567 288.067 875.034 293.4 866.367 297.4C857.834 301.267 848.434 303.2 838.167 303.2ZM801.167 231.2C801.167 236.667 801.967 242 803.567 247.2C805.167 252.267 807.501 256.8 810.567 260.8C813.767 264.8 817.701 268 822.367 270.4C827.034 272.8 832.367 274 838.367 274C844.634 274 850.101 272.8 854.767 270.4C859.434 267.867 863.301 264.533 866.367 260.4C869.434 256.267 871.701 251.667 873.167 246.6C874.767 241.4 875.567 236.133 875.567 230.8C875.567 225.333 874.767 220.067 873.167 215C871.567 209.933 869.167 205.4 865.967 201.4C862.767 197.267 858.834 194.067 854.167 191.8C849.501 189.533 844.234 188.4 838.367 188.4C832.101 188.4 826.634 189.6 821.967 192C817.434 194.4 813.567 197.667 810.367 201.8C807.301 205.8 804.967 210.4 803.367 215.6C801.901 220.667 801.167 225.867 801.167 231.2ZM952.72 220.8V302H919.92V160H945.92L1011.72 243.6V160H1044.52V302H1017.72L952.72 220.8Z" fill="black"/>
<rect x="1472.55" y="122.882" width="30.4511" height="12.859" fill="black" stroke="black" stroke-width="4"/>
<rect x="1446.16" y="55.4463" width="36.3151" height="14.325" fill="black" stroke="black" stroke-width="4"/>
<rect x="1417.57" y="164.663" width="54.6401" height="12.859" fill="black" stroke="black" stroke-width="4"/>
<path fill-rule="evenodd" clip-rule="evenodd" d="M1313.69 8C1340.9 8 1366.38 17.1907 1387.6 32.9221H1421.44V51.2471H1415.21V76.1692H1425.89C1428.35 80.4239 1430.61 84.8271 1432.66 89.3632H1465.42V107.688H1439.57C1443.12 119.323 1445.37 131.609 1446.1 144.338H1422.17V162.663H1446.1C1445.48 173.8 1443.72 184.597 1440.96 194.915H1483.01V214.706H1414.84V233.032H1452.96V252.823H1411.03C1387.09 281.238 1352.99 299.002 1315.15 299.002H1257.98V296.808C1277.9 287.331 1295.28 272.543 1308.67 254.047L1315.15 253.922C1362.11 253.922 1398.71 209.367 1398.71 153.501C1398.71 148.9 1398.46 144.374 1397.98 139.94H1422.54V121.615H1394.54C1383.68 81.4867 1352.74 52.7131 1315.15 52.7131H1308.14C1295.11 33.5713 1277.91 18.1139 1258.04 8H1313.69ZM1401.21 142.872C1401.5 146.366 1401.65 149.912 1401.65 153.501C1401.65 210.435 1364.24 256.834 1315.18 256.853L1310.18 256.95C1298.16 273.215 1283.06 286.621 1265.85 296.07H1315.15C1352.48 296.07 1386.17 278.328 1409.66 249.891H1450.02V235.964H1411.91V211.774H1480.08V197.847H1437.1C1440.12 187.565 1442.13 176.765 1442.97 165.595H1419.24V142.872H1401.21ZM1269.17 10.932C1284.94 20.7734 1298.72 34.0325 1309.68 49.7811H1315.15C1353.7 49.7811 1385.13 78.7456 1396.76 118.683H1425.47V141.406H1442.96C1441.2 118.7 1434.54 97.5183 1424.19 79.1012H1412.28V51.2471H1403.79L1402.92 50.343C1379.5 25.8854 1347.97 10.932 1313.69 10.932H1269.17ZM1433.95 92.2952C1435.69 96.3595 1437.26 100.525 1438.65 104.783C1438.65 104.774 1438.65 104.765 1438.64 104.756H1462.49V92.2952H1433.95ZM1391.41 35.8541C1396.2 39.6773 1400.75 43.8406 1405.04 48.3151H1418.51V35.8541H1391.41Z" fill="black"/>
<path d="M1189.81 10C1260.98 10.0002 1319.02 74.0482 1319.02 153.501C1319.02 232.954 1260.98 297.002 1189.81 297.002H1065V10H1189.81ZM1104.98 257.021H1189.81C1238.19 257.021 1276.84 210.498 1276.84 153.867C1276.84 97.2363 1238.19 50.7131 1189.81 50.7129H1104.98V257.021Z" fill="black" stroke="black" stroke-width="4"/>
<path d="M1187.98 104.023C1215.3 104.023 1237.45 126.175 1237.45 153.501C1237.45 180.826 1215.3 202.978 1187.98 202.978C1160.65 202.978 1138.5 180.826 1138.5 153.501C1138.5 126.175 1160.65 104.023 1187.98 104.023ZM1187.98 128.213C1174.01 128.213 1162.69 139.534 1162.69 153.501C1162.69 167.467 1174.01 178.79 1187.98 178.79C1201.94 178.79 1213.27 167.467 1213.27 153.501C1213.27 139.534 1201.94 128.213 1187.98 128.213Z" fill="black"/>
</g>
<defs>
<clipPath id="clip0_35_46">
<rect width="1534" height="307" fill="white"/>
</clipPath>
</defs>
</svg>
