<svg width="1534" height="306" viewBox="0 0 1534 306" fill="none" xmlns="http://www.w3.org/2000/svg">
<g clip-path="url(#clip0_35_71)">
<rect x="1489.08" y="120.172" width="34.9187" height="17.0879" fill="#5B7D96"/>
<rect x="1462.33" y="51.8208" width="40.8624" height="18.5738" fill="#5B7D96"/>
<rect x="1433.36" y="162.521" width="59.4362" height="17.0879" fill="#5B7D96"/>
<rect x="1411.81" y="233.844" width="59.4362" height="20.0597" fill="#FE483E"/>
<rect x="1443.02" y="88.2256" width="40.8624" height="18.5738" fill="#FE483E"/>
<rect x="1398.44" y="31.0181" width="40.8624" height="18.5738" fill="#FE483E"/>
<rect x="1442.28" y="195.21" width="59.4362" height="20.0597" fill="#FE483E"/>
<path d="M1330.09 5.75781C1365.73 5.75781 1398.45 21.3069 1422.68 46.6202H1432.99V74.8523H1443.82C1455.51 95.1004 1462.85 118.66 1464.3 143.947H1440.05V162.521H1464.3C1463.25 181.268 1459.04 199.067 1452.26 215.27H1432.62V233.844H1442.95C1419.21 274.107 1378.2 300.71 1331.58 300.71H1273.63V298.486C1293.82 288.88 1311.44 273.891 1325.01 255.144L1331.58 255.018C1379.17 255.018 1416.27 209.858 1416.27 153.234C1416.27 148.571 1416.02 143.983 1415.53 139.489H1440.42V120.915H1412.04C1401.04 80.242 1369.67 51.0779 1331.58 51.0779H1324.47C1311.26 31.6763 1293.83 16.009 1273.69 5.75781H1330.09Z" fill="#FE483E"/>
<path fill-rule="evenodd" clip-rule="evenodd" d="M1204.53 5.75781C1277.98 5.75781 1337.52 71.785 1337.52 153.234C1337.52 234.682 1277.98 300.71 1204.53 300.71H1076V5.75781H1204.53ZM1120.58 256.133H1204.53C1252.13 256.133 1290.71 210.23 1290.71 153.605C1290.71 96.9809 1252.13 51.0779 1204.53 51.0779H1120.58V256.133Z" fill="#5B7D96"/>
<path d="M1202.67 103.084C1230.37 103.085 1252.82 125.537 1252.82 153.234C1252.82 180.93 1230.37 203.383 1202.67 203.383C1174.98 203.383 1152.52 180.93 1152.52 153.234C1152.52 125.537 1174.98 103.084 1202.67 103.084ZM1202.67 129.087C1189.34 129.087 1178.53 139.898 1178.53 153.234C1178.53 166.569 1189.34 177.379 1202.67 177.379C1216.01 177.379 1226.82 166.569 1226.82 153.234C1226.82 139.899 1216.01 129.087 1202.67 129.087Z" fill="#5B7D96"/>
<path d="M5.6 151V8.99999H58.6C74.2 8.99999 87.2 12.2 97.6 18.6C108.133 24.8667 116.067 33.4 121.4 44.2C126.733 54.8667 129.4 66.7333 129.4 79.8C129.4 94.2 126.467 106.733 120.6 117.4C114.733 128.067 106.467 136.333 95.8 142.2C85.2667 148.067 72.8667 151 58.6 151H5.6ZM96 79.8C96 71.5333 94.5333 64.2667 91.6 58C88.6667 51.6 84.4 46.6667 78.8 43.2C73.2 39.6 66.4667 37.8 58.6 37.8H38.4V122.2H58.6C66.6 122.2 73.3333 120.4 78.8 116.8C84.4 113.067 88.6667 108 91.6 101.6C94.5333 95.0667 96 87.8 96 79.8ZM240.564 122.2V151H140.764V8.99999H238.764V37.8H173.564V65.4H229.564V92H173.564V122.2H240.564ZM241.947 78.8C241.947 70.1333 243.547 61.6667 246.747 53.4C249.947 45 254.614 37.4 260.747 30.6C266.88 23.8 274.347 18.4 283.147 14.4C291.947 10.2667 301.947 8.19999 313.147 8.19999C326.48 8.19999 338.014 11.0667 347.747 16.8C357.614 22.5333 364.947 30 369.747 39.2L344.547 56.8C342.414 51.7333 339.547 47.8 335.947 45C332.48 42.2 328.614 40.2667 324.347 39.2C320.214 38 316.214 37.4 312.347 37.4C306.08 37.4 300.614 38.6667 295.947 41.2C291.28 43.6 287.414 46.8667 284.347 51C281.28 55.1333 279.014 59.7333 277.547 64.8C276.08 69.8667 275.347 74.9333 275.347 80C275.347 85.6 276.214 91 277.947 96.2C279.68 101.4 282.147 106 285.347 110C288.68 114 292.68 117.2 297.347 119.6C302.014 121.867 307.147 123 312.747 123C316.747 123 320.814 122.333 324.947 121C329.08 119.667 332.88 117.6 336.347 114.8C339.947 111.867 342.68 108.067 344.547 103.4L371.347 119.2C368.547 126.133 363.947 132.067 357.547 137C351.147 141.933 343.88 145.733 335.747 148.4C327.747 150.933 319.814 152.2 311.947 152.2C301.68 152.2 292.214 150.133 283.547 146C275.014 141.733 267.614 136.133 261.347 129.2C255.214 122.133 250.414 114.267 246.947 105.6C243.614 96.8 241.947 87.8667 241.947 78.8ZM479.642 122.2V151H379.842V8.99999H477.842V37.8H412.642V65.4H468.642V92H412.642V122.2H479.642ZM491.569 151V8.99999H552.169C558.969 8.99999 565.169 10.4 570.769 13.2C576.502 15.8667 581.435 19.5333 585.569 24.2C589.702 28.7333 592.902 33.8667 595.169 39.6C597.435 45.3333 598.569 51.2 598.569 57.2C598.569 65.3333 596.635 73.0667 592.769 80.4C589.035 87.7333 583.769 93.7333 576.969 98.4C570.302 102.933 562.369 105.2 553.169 105.2H524.369V151H491.569ZM524.369 76.6H551.169C553.702 76.6 556.035 75.8667 558.169 74.4C560.302 72.9333 562.035 70.7333 563.369 67.8C564.702 64.8667 565.369 61.2667 565.369 57C565.369 52.6 564.569 49 562.969 46.2C561.502 43.2667 559.569 41.1333 557.169 39.8C554.902 38.4667 552.502 37.8 549.969 37.8H524.369V76.6ZM716.378 37.8H673.178V151H640.378V37.8H596.978V8.99999H716.378V37.8ZM724.397 151V8.99999H757.197V151H724.397ZM838.558 152.2C827.891 152.2 818.224 150.2 809.558 146.2C801.024 142.067 793.624 136.6 787.358 129.8C781.224 122.867 776.491 115.133 773.158 106.6C769.824 97.9333 768.158 89 768.158 79.8C768.158 70.3333 769.891 61.3333 773.358 52.8C776.958 44.2667 781.891 36.6667 788.158 30C794.558 23.2 802.091 17.8667 810.758 14C819.424 10.1333 828.891 8.19999 839.158 8.19999C849.691 8.19999 859.224 10.2667 867.758 14.4C876.424 18.4 883.824 23.8667 889.958 30.8C896.224 37.7333 901.024 45.5333 904.358 54.2C907.691 62.7333 909.358 71.4667 909.358 80.4C909.358 89.8667 907.624 98.8667 904.158 107.4C900.691 115.933 895.758 123.6 889.358 130.4C882.958 137.067 875.424 142.4 866.758 146.4C858.224 150.267 848.824 152.2 838.558 152.2ZM801.558 80.2C801.558 85.6667 802.358 91 803.958 96.2C805.558 101.267 807.891 105.8 810.958 109.8C814.158 113.8 818.091 117 822.758 119.4C827.424 121.8 832.758 123 838.758 123C845.024 123 850.491 121.8 855.158 119.4C859.824 116.867 863.691 113.533 866.758 109.4C869.824 105.267 872.091 100.667 873.558 95.6C875.158 90.4 875.958 85.1333 875.958 79.8C875.958 74.3333 875.158 69.0667 873.558 64C871.958 58.9333 869.558 54.4 866.358 50.4C863.158 46.2667 859.224 43.0667 854.558 40.8C849.891 38.5333 844.624 37.4 838.758 37.4C832.491 37.4 827.024 38.6 822.358 41C817.824 43.4 813.958 46.6667 810.758 50.8C807.691 54.8 805.358 59.4 803.758 64.6C802.291 69.6667 801.558 74.8667 801.558 80.2ZM953.111 69.8V151H920.311V8.99999H946.311L1012.11 92.6V8.99999H1044.91V151H1018.11L953.111 69.8Z" fill="#FE483E"/>
<path d="M5.6 301V159H58.6C74.2 159 87.2 162.2 97.6 168.6C108.133 174.867 116.067 183.4 121.4 194.2C126.733 204.867 129.4 216.733 129.4 229.8C129.4 244.2 126.467 256.733 120.6 267.4C114.733 278.067 106.467 286.333 95.8 292.2C85.2667 298.067 72.8667 301 58.6 301H5.6ZM96 229.8C96 221.533 94.5333 214.267 91.6 208C88.6667 201.6 84.4 196.667 78.8 193.2C73.2 189.6 66.4667 187.8 58.6 187.8H38.4V272.2H58.6C66.6 272.2 73.3333 270.4 78.8 266.8C84.4 263.067 88.6667 258 91.6 251.6C94.5333 245.067 96 237.8 96 229.8ZM240.564 272.2V301H140.764V159H238.764V187.8H173.564V215.4H229.564V242H173.564V272.2H240.564ZM360.691 187.8H317.491V301H284.691V187.8H241.291V159H360.691V187.8ZM468.509 272.2V301H368.709V159H466.709V187.8H401.509V215.4H457.509V242H401.509V272.2H468.509ZM469.892 228.8C469.892 220.133 471.492 211.667 474.692 203.4C477.892 195 482.559 187.4 488.692 180.6C494.826 173.8 502.292 168.4 511.092 164.4C519.892 160.267 529.892 158.2 541.092 158.2C554.426 158.2 565.959 161.067 575.692 166.8C585.559 172.533 592.892 180 597.692 189.2L572.492 206.8C570.359 201.733 567.492 197.8 563.892 195C560.426 192.2 556.559 190.267 552.292 189.2C548.159 188 544.159 187.4 540.292 187.4C534.026 187.4 528.559 188.667 523.892 191.2C519.226 193.6 515.359 196.867 512.292 201C509.226 205.133 506.959 209.733 505.492 214.8C504.026 219.867 503.292 224.933 503.292 230C503.292 235.6 504.159 241 505.892 246.2C507.626 251.4 510.092 256 513.292 260C516.626 264 520.626 267.2 525.292 269.6C529.959 271.867 535.092 273 540.692 273C544.692 273 548.759 272.333 552.892 271C557.026 269.667 560.826 267.6 564.292 264.8C567.892 261.867 570.626 258.067 572.492 253.4L599.292 269.2C596.492 276.133 591.892 282.067 585.492 287C579.092 291.933 571.826 295.733 563.692 298.4C555.692 300.933 547.759 302.2 539.892 302.2C529.626 302.2 520.159 300.133 511.492 296C502.959 291.733 495.559 286.133 489.292 279.2C483.159 272.133 478.359 264.267 474.892 255.6C471.559 246.8 469.892 237.867 469.892 228.8ZM715.988 187.8H672.788V301H639.988V187.8H596.588V159H715.988V187.8ZM724.006 301V159H756.806V301H724.006ZM838.167 302.2C827.501 302.2 817.834 300.2 809.167 296.2C800.634 292.067 793.234 286.6 786.967 279.8C780.834 272.867 776.101 265.133 772.767 256.6C769.434 247.933 767.767 239 767.767 229.8C767.767 220.333 769.501 211.333 772.967 202.8C776.567 194.267 781.501 186.667 787.767 180C794.167 173.2 801.701 167.867 810.367 164C819.034 160.133 828.501 158.2 838.767 158.2C849.301 158.2 858.834 160.267 867.367 164.4C876.034 168.4 883.434 173.867 889.567 180.8C895.834 187.733 900.634 195.533 903.967 204.2C907.301 212.733 908.967 221.467 908.967 230.4C908.967 239.867 907.234 248.867 903.767 257.4C900.301 265.933 895.367 273.6 888.967 280.4C882.567 287.067 875.034 292.4 866.367 296.4C857.834 300.267 848.434 302.2 838.167 302.2ZM801.167 230.2C801.167 235.667 801.967 241 803.567 246.2C805.167 251.267 807.501 255.8 810.567 259.8C813.767 263.8 817.701 267 822.367 269.4C827.034 271.8 832.367 273 838.367 273C844.634 273 850.101 271.8 854.767 269.4C859.434 266.867 863.301 263.533 866.367 259.4C869.434 255.267 871.701 250.667 873.167 245.6C874.767 240.4 875.567 235.133 875.567 229.8C875.567 224.333 874.767 219.067 873.167 214C871.567 208.933 869.167 204.4 865.967 200.4C862.767 196.267 858.834 193.067 854.167 190.8C849.501 188.533 844.234 187.4 838.367 187.4C832.101 187.4 826.634 188.6 821.967 191C817.434 193.4 813.567 196.667 810.367 200.8C807.301 204.8 804.967 209.4 803.367 214.6C801.901 219.667 801.167 224.867 801.167 230.2ZM952.72 219.8V301H919.92V159H945.92L1011.72 242.6V159H1044.52V301H1017.72L952.72 219.8Z" fill="#5B7D96"/>
</g>
<defs>
<clipPath id="clip0_35_71">
<rect width="1534" height="306" fill="white"/>
</clipPath>
</defs>
</svg>
